<svg xmlns="http://www.w3.org/2000/svg" viewBox="296.19 1324.82 1392.84 324.23" role="img" aria-label="L'altra Volta"><g fill="#8A7A3F"><path transform="translate(328.708 1560.5107)" d="M 93.78125 -20.515625 C 105.5 -37.4375 115.265625 -57.953125 124.375 -78.796875 C 178.765625 -80.421875 234.109375 -142.296875 234.109375 -185.59375 C 234.109375 -207.734375 221.734375 -223.6875 200.90625 -223.6875 C 154.984375 -223.6875 131.546875 -154.015625 103.875 -90.515625 C 87.265625 -95.078125 79.453125 -106.796875 79.453125 -121.78125 C 79.453125 -139.6875 91.5 -157.921875 105.171875 -167.03125 C 108.421875 -169.3125 109.078125 -170.625 109.078125 -171.59375 C 109.078125 -174.53125 103.546875 -178.109375 96.375 -178.109375 C 79.78125 -178.109375 65.453125 -150.75 65.453125 -128.9375 C 65.453125 -106.796875 77.5 -88.890625 99.96875 -81.734375 C 90.84375 -61.21875 81.078125 -41.359375 69.6875 -25.390625 C 49.8125 -29.625 30.28125 -33.53125 14 -33.53125 C -2.9375 -33.53125 -20.515625 -23.765625 -20.515625 -6.84375 C -20.515625 7.8125 -5.53125 24.75 23.125 24.75 C 48.84375 24.75 69.03125 11.078125 85.640625 -9.4375 L 91.171875 -7.8125 C 108.75 -1.953125 125.03125 2.609375 136.4375 2.609375 C 165.734375 2.609375 185.921875 -20.84375 185.921875 -34.84375 C 185.921875 -37.765625 184.953125 -39.40625 183.640625 -39.40625 C 180.390625 -39.40625 172.578125 -17.90625 132.515625 -17.90625 C 118.515625 -17.90625 108.109375 -18.234375 93.78125 -20.515625 Z M 219.140625 -192.4375 C 219.140625 -150.4375 175.5 -95.734375 128.9375 -89.21875 C 154.015625 -149.453125 172.90625 -211.328125 205.453125 -211.328125 C 213.921875 -211.328125 219.140625 -204.15625 219.140625 -192.4375 Z M 22.140625 -24.75 C 32.890625 -24.75 47.859375 -21.171875 62.84375 -16.609375 C 48.84375 0 32.234375 11.078125 11.71875 11.078125 C -0.984375 11.078125 -8.46875 3.90625 -8.46875 -4.890625 C -8.46875 -13.34375 0.328125 -24.75 22.140625 -24.75 Z M 22.140625 -24.75 "/><path transform="translate(591.474947 1560.5107)" d="M 14.65625 -209.046875 C 14.65625 -201.546875 21.8125 -202.203125 21.8125 -193.09375 C 21.8125 -179.078125 4.234375 -160.53125 -13.34375 -152.703125 C -13.671875 -149.78125 -11.390625 -147.828125 -8.796875 -147.828125 C -4.234375 -147.828125 3.90625 -152.0625 13.03125 -158.25 C 32.5625 -171.265625 45.578125 -187.875 45.578125 -204.484375 C 45.578125 -215.875 38.421875 -223.046875 29.3125 -223.046875 C 22.46875 -223.046875 14.65625 -216.859375 14.65625 -209.046875 Z M 14.65625 -209.046875 "/><path transform="translate(596.359091 1560.5107)" d="M 102.234375 -103.875 C 105.171875 -102.5625 106.796875 -104.84375 104.84375 -107.453125 C 101.59375 -112.015625 96.0625 -115.265625 86.28125 -115.265625 C 43.3125 -115.265625 -14.65625 -61.859375 -14.65625 -23.4375 C -14.65625 -8.140625 -4.890625 -2.28125 3.578125 -2.28125 C 20.84375 -2.28125 43.3125 -23.4375 60.5625 -43.953125 C 58.609375 -39.078125 57.953125 -35.484375 57.953125 -30.609375 C 57.953125 -18.890625 66.421875 -10.421875 78.46875 -10.421875 C 101.59375 -10.421875 126.34375 -39.40625 136.4375 -55.359375 C 138.0625 -57.953125 138.390625 -58.9375 138.390625 -60.234375 C 138.390625 -61.21875 137.734375 -61.859375 136.75 -61.859375 C 135.78125 -61.859375 135.125 -61.546875 132.84375 -58.609375 C 124.703125 -47.859375 102.5625 -19.859375 83.6875 -19.859375 C 78.796875 -19.859375 74.890625 -22.46875 74.890625 -30.609375 C 74.890625 -44.609375 90.84375 -59.59375 90.84375 -66.421875 C 90.84375 -71.3125 84.328125 -79.125 80.421875 -79.125 C 78.46875 -79.125 77.171875 -75.546875 66.75 -62.1875 C 45.265625 -34.84375 23.4375 -14.984375 14.65625 -14.984375 C 11.71875 -14.984375 9.109375 -17.25 9.109375 -23.765625 C 9.109375 -48.515625 56.328125 -105.171875 95.734375 -105.171875 C 98.328125 -105.171875 100.609375 -104.515625 102.234375 -103.875 Z M 102.234375 -103.875 "/><path transform="translate(729.859027 1560.5107)" d="M 14.328125 -24.75 C 14.328125 -54.375 38.09375 -108.109375 60.234375 -141.640625 C 70 -156.625 77.828125 -166.390625 87.59375 -173.546875 C 91.171875 -176.484375 94.09375 -176.8125 94.09375 -178.765625 C 94.09375 -181.359375 88.234375 -187.21875 80.421875 -187.21875 C 66.75 -187.21875 55.03125 -171.921875 39.71875 -148.15625 C 18.234375 -114.28125 -4.5625 -60.890625 -4.5625 -28.984375 C -4.5625 -8.140625 6.1875 1.625 19.53125 1.625 C 42 1.625 68.375 -32.234375 84 -56.984375 C 84.984375 -58.609375 86.28125 -60.234375 86.28125 -61.546875 C 86.28125 -62.84375 85.3125 -63.5 84.328125 -63.5 C 83.359375 -63.5 82.375 -63.171875 80.421875 -60.234375 C 68.375 -42.984375 42 -9.765625 25.71875 -9.765625 C 18.234375 -9.765625 14.328125 -14.328125 14.328125 -24.75 Z M 14.328125 -24.75 "/><path transform="translate(810.284598 1560.5107)" d="M 87.59375 -99.3125 C 87.59375 -95.078125 85.3125 -83.6875 77.5 -60.234375 C 69.03125 -34.84375 60.890625 -19.53125 60.890625 -14.65625 C 60.890625 -10.421875 69.03125 -2.9375 73.90625 -2.9375 C 80.75 -2.9375 80.421875 -19.53125 98.984375 -50.140625 C 124.703125 -92.46875 148.484375 -104.515625 163.453125 -104.515625 C 170.625 -104.515625 173.21875 -101.59375 175.171875 -101.59375 C 176.484375 -101.59375 177.453125 -102.5625 177.453125 -103.875 C 177.453125 -107.78125 170.9375 -122.421875 155.96875 -122.421875 C 134.796875 -122.421875 119.171875 -93.78125 95.078125 -57.640625 C 103.875 -79.453125 106.46875 -90.1875 106.46875 -95.734375 C 106.46875 -110.375 96.703125 -121.453125 74.234375 -121.453125 C 67.078125 -121.453125 57.640625 -120.15625 47.859375 -118.84375 C 56.984375 -133.171875 65.765625 -143.921875 71.640625 -148.15625 C 75.859375 -151.078125 77.828125 -151.40625 77.828125 -153.03125 C 77.828125 -155.640625 71.3125 -162.15625 63.8125 -162.15625 C 52.75 -162.15625 36.46875 -141.640625 22.140625 -115.265625 C 17.25 -114.9375 13.03125 -114.609375 9.4375 -114.609375 C -0.984375 -114.609375 -4.234375 -117.546875 -6.515625 -117.546875 C -7.15625 -117.546875 -7.8125 -116.890625 -7.8125 -115.921875 C -7.8125 -112.65625 -2.28125 -102.234375 12.375 -102.234375 L 15.625 -102.234375 C 2.9375 -75.546875 -6.84375 -45.578125 -6.84375 -25.078125 C -6.84375 1.296875 5.53125 14.65625 9.4375 14.65625 C 11.078125 14.65625 12.375 13.671875 12.375 11.71875 C 12.375 8.46875 8.46875 3.578125 8.46875 -11.078125 C 8.46875 -39.71875 24.421875 -78.796875 41.359375 -108.109375 C 51.765625 -111.03125 62.84375 -113.96875 74.234375 -113.96875 C 84 -113.96875 87.59375 -109.078125 87.59375 -99.3125 Z M 87.59375 -99.3125 "/><path transform="translate(966.251597 1560.5107)" d="M 102.234375 -103.875 C 105.171875 -102.5625 106.796875 -104.84375 104.84375 -107.453125 C 101.59375 -112.015625 96.0625 -115.265625 86.28125 -115.265625 C 43.3125 -115.265625 -14.65625 -61.859375 -14.65625 -23.4375 C -14.65625 -8.140625 -4.890625 -2.28125 3.578125 -2.28125 C 20.84375 -2.28125 43.3125 -23.4375 60.5625 -43.953125 C 58.609375 -39.078125 57.953125 -35.484375 57.953125 -30.609375 C 57.953125 -18.890625 66.421875 -10.421875 78.46875 -10.421875 C 101.59375 -10.421875 126.34375 -39.40625 136.4375 -55.359375 C 138.0625 -57.953125 138.390625 -58.9375 138.390625 -60.234375 C 138.390625 -61.21875 137.734375 -61.859375 136.75 -61.859375 C 135.78125 -61.859375 135.125 -61.546875 132.84375 -58.609375 C 124.703125 -47.859375 102.5625 -19.859375 83.6875 -19.859375 C 78.796875 -19.859375 74.890625 -22.46875 74.890625 -30.609375 C 74.890625 -44.609375 90.84375 -59.59375 90.84375 -66.421875 C 90.84375 -71.3125 84.328125 -79.125 80.421875 -79.125 C 78.46875 -79.125 77.171875 -75.546875 66.75 -62.1875 C 45.265625 -34.84375 23.4375 -14.984375 14.65625 -14.984375 C 11.71875 -14.984375 9.109375 -17.25 9.109375 -23.765625 C 9.109375 -48.515625 56.328125 -105.171875 95.734375 -105.171875 C 98.328125 -105.171875 100.609375 -104.515625 102.234375 -103.875 Z M 102.234375 -103.875 "/><path transform="translate(1159.989309 1560.5107) scale(0.20903 -0.20903)" d="M807.8 783.11C695.52 459.11 555.21 113.2 357.31 -143.5C330.19 -178.68 112.46 -469.57 147.68 -36.89C164.68 172 188.98 384.01 239.5 587.39C255.12 650.28 157.74 681.72 141.56 627.63C102.4 441.81 75.13 253.7 61.22 64.29C54.52 -26.91 48.09 -119.57 50.53 -211.06C52.12 -270.8 74.24 -337.61 132.6 -360.56C226.4 -397.46 357.37 -243.44 427.76 -155.96C565.39 15.1 801.74 503.12 869.03 753.42C877.22 783.89 820.55 819.88 807.8 783.11Z"/><path transform="translate(1266.431087 1560.5107)" d="M 75.859375 -125.03125 C 61.859375 -125.03125 51.125 -114.9375 51.125 -109.40625 C 51.125 -107.78125 52.09375 -106.796875 52.75 -106.796875 C 56.328125 -110.375 61.546875 -114.28125 68.375 -114.28125 C 75.21875 -114.28125 80.421875 -110.0625 80.421875 -96.375 C 80.421875 -60.890625 46.890625 -13.34375 25.078125 -13.34375 C 17.90625 -13.34375 14.328125 -18.234375 14.328125 -27.34375 C 14.328125 -48.84375 35.8125 -79.125 58.28125 -91.171875 C 62.1875 -93.453125 63.8125 -94.421875 63.8125 -96.375 C 63.8125 -98.015625 62.84375 -99.640625 59.90625 -99.640625 C 58.609375 -99.640625 55.03125 -99.3125 51.453125 -98.328125 C 23.4375 -91.171875 -8.796875 -61.21875 -8.796875 -33.21875 C -8.796875 -14.65625 4.890625 -3.578125 19.21875 -3.578125 C 51.453125 -3.578125 98.015625 -60.5625 98.015625 -99.3125 C 98.015625 -115.921875 89.21875 -125.03125 75.859375 -125.03125 Z M 75.859375 -125.03125 "/><path transform="translate(1375.510303 1560.5107)" d="M 14.328125 -24.75 C 14.328125 -54.375 38.09375 -108.109375 60.234375 -141.640625 C 70 -156.625 77.828125 -166.390625 87.59375 -173.546875 C 91.171875 -176.484375 94.09375 -176.8125 94.09375 -178.765625 C 94.09375 -181.359375 88.234375 -187.21875 80.421875 -187.21875 C 66.75 -187.21875 55.03125 -171.921875 39.71875 -148.15625 C 18.234375 -114.28125 -4.5625 -60.890625 -4.5625 -28.984375 C -4.5625 -8.140625 6.1875 1.625 19.53125 1.625 C 42 1.625 68.375 -32.234375 84 -56.984375 C 84.984375 -58.609375 86.28125 -60.234375 86.28125 -61.546875 C 86.28125 -62.84375 85.3125 -63.5 84.328125 -63.5 C 83.359375 -63.5 82.375 -63.171875 80.421875 -60.234375 C 68.375 -42.984375 42 -9.765625 25.71875 -9.765625 C 18.234375 -9.765625 14.328125 -14.328125 14.328125 -24.75 Z M 14.328125 -24.75 "/><path transform="translate(1455.935874 1560.5107)" d="M 12.046875 -23.125 C 12.046875 -41.671875 23.125 -70.984375 49.171875 -109.078125 C 56.984375 -111.359375 64.796875 -112.984375 72.9375 -112.984375 C 77.828125 -112.984375 79.78125 -112.328125 81.078125 -112.328125 C 82.703125 -112.328125 85.953125 -115.265625 85.953125 -117.21875 C 85.953125 -119.171875 81.734375 -120.796875 72.9375 -120.796875 C 68.375 -120.796875 62.515625 -120.15625 56.328125 -119.5 C 61.546875 -126.65625 67.40625 -134.15625 73.59375 -141.96875 C 77.5 -146.84375 79.453125 -147.828125 79.453125 -149.78125 C 79.453125 -153.03125 71.953125 -160.203125 66.75 -160.203125 C 57.640625 -160.203125 45.265625 -145.546875 30.28125 -120.796875 L 27.03125 -115.265625 C 22.140625 -114.609375 17.90625 -114.28125 14.328125 -114.28125 C 3.90625 -114.28125 0.65625 -117.21875 -1.625 -117.21875 C -2.28125 -117.21875 -2.9375 -116.5625 -2.9375 -115.59375 C -2.9375 -112.328125 2.609375 -101.921875 17.25 -101.921875 L 19.21875 -101.921875 C 3.90625 -73.90625 -7.15625 -46.5625 -7.15625 -27.671875 C -7.15625 -5.859375 4.234375 4.5625 18.234375 4.5625 C 41.671875 4.5625 69.6875 -28.984375 85.3125 -54.046875 C 86.28125 -55.671875 87.59375 -57.3125 87.59375 -58.609375 C 87.59375 -59.90625 86.609375 -60.5625 85.640625 -60.5625 C 84.65625 -60.5625 83.6875 -60.234375 81.734375 -57.3125 C 71.3125 -41.671875 41.671875 -6.84375 24.421875 -6.84375 C 16.609375 -6.84375 12.046875 -11.71875 12.046875 -23.125 Z M 12.046875 -23.125 "/><path transform="translate(1538.640713 1560.5107)" d="M 102.234375 -103.875 C 105.171875 -102.5625 106.796875 -104.84375 104.84375 -107.453125 C 101.59375 -112.015625 96.0625 -115.265625 86.28125 -115.265625 C 43.3125 -115.265625 -14.65625 -61.859375 -14.65625 -23.4375 C -14.65625 -8.140625 -4.890625 -2.28125 3.578125 -2.28125 C 20.84375 -2.28125 43.3125 -23.4375 60.5625 -43.953125 C 58.609375 -39.078125 57.953125 -35.484375 57.953125 -30.609375 C 57.953125 -18.890625 66.421875 -10.421875 78.46875 -10.421875 C 101.59375 -10.421875 126.34375 -39.40625 136.4375 -55.359375 C 138.0625 -57.953125 138.390625 -58.9375 138.390625 -60.234375 C 138.390625 -61.21875 137.734375 -61.859375 136.75 -61.859375 C 135.78125 -61.859375 135.125 -61.546875 132.84375 -58.609375 C 124.703125 -47.859375 102.5625 -19.859375 83.6875 -19.859375 C 78.796875 -19.859375 74.890625 -22.46875 74.890625 -30.609375 C 74.890625 -44.609375 90.84375 -59.59375 90.84375 -66.421875 C 90.84375 -71.3125 84.328125 -79.125 80.421875 -79.125 C 78.46875 -79.125 77.171875 -75.546875 66.75 -62.1875 C 45.265625 -34.84375 23.4375 -14.984375 14.65625 -14.984375 C 11.71875 -14.984375 9.109375 -17.25 9.109375 -23.765625 C 9.109375 -48.515625 56.328125 -105.171875 95.734375 -105.171875 C 98.328125 -105.171875 100.609375 -104.515625 102.234375 -103.875 Z M 102.234375 -103.875 "/></g></svg>
