<svg xmlns="http://www.w3.org/2000/svg" width="765" height="153" viewBox="0 0 765 153" version="1.1">
	<path d="M 564.669 17.891 C 562.851 35.289, 549.155 55.434, 515.986 89.500 C 506.346 99.400, 495.456 110.862, 491.786 114.972 L 485.113 122.444 486.034 118.343 C 487.929 109.911, 493.770 95.334, 503.863 73.850 C 520.401 38.648, 521.970 26.102, 510.802 18.363 C 507.274 15.918, 505.831 15.559, 499.626 15.583 C 480.598 15.658, 458.090 31.067, 448.323 50.706 C 443.206 60.995, 442.672 69.361, 446.654 76.864 C 448.513 80.368, 450.783 82.968, 453.200 84.363 C 457.878 87.063, 459.670 85.824, 457.379 81.476 C 456.211 79.261, 455.920 76.520, 456.240 70.754 C 456.606 64.146, 457.288 61.758, 460.891 54.489 C 466.120 43.936, 473.180 35.332, 481.855 28.939 C 489.361 23.408, 495.367 21, 501.655 21 C 505.161 21, 506.263 21.471, 507.626 23.552 C 509.190 25.940, 509.189 26.499, 507.605 32.196 C 506.674 35.546, 500.745 48.589, 494.431 61.181 C 481.031 87.901, 477.354 96.733, 475.354 107 C 473.177 118.176, 475.660 129.142, 481.017 132.009 C 483.746 133.469, 484.811 132.674, 491.743 124 C 497.947 116.236, 507.529 106.733, 531.507 84.560 C 570.173 48.806, 581.751 28.851, 571.573 15.506 C 567.432 10.078, 565.413 10.776, 564.669 17.891 M 117.165 16.862 C 105.621 20.947, 96.008 34.229, 83.532 63.335 C 81.135 68.926, 78.245 75.652, 77.109 78.282 L 75.044 83.063 71.035 81.018 C 59.613 75.191, 60.729 58.508, 73.327 46.746 C 77.990 42.393, 78.285 41.856, 76.824 40.396 C 75.914 39.486, 73.569 38.800, 71.367 38.800 C 68.048 38.800, 66.919 39.446, 63.350 43.389 C 58.285 48.983, 56 55.301, 56 63.710 C 56 73.905, 60.559 81.628, 69.208 86.087 L 72.916 87.998 70.191 93.749 C 66.307 101.947, 59.176 114.773, 58.150 115.407 C 57.671 115.703, 52.701 115.057, 47.105 113.973 C 33.600 111.355, 25.867 111.402, 20.218 114.137 C 9.684 119.236, 9.385 131.094, 19.622 137.804 C 31.104 145.331, 48.619 141.966, 60.718 129.909 L 65.937 124.709 75.524 127.430 C 87.549 130.842, 95.860 131.040, 102.567 128.073 C 108.243 125.563, 110.258 123.914, 114.146 118.600 C 116.789 114.988, 118.062 109, 116.187 109 C 115.740 109, 114.112 110.317, 112.570 111.927 C 111.027 113.538, 107.455 115.900, 104.632 117.177 C 100.066 119.244, 97.993 119.500, 85.833 119.500 C 78.317 119.500, 71.864 119.197, 71.494 118.827 C 71.124 118.457, 72.643 115.036, 74.869 111.224 C 77.095 107.413, 80.435 100.965, 82.290 96.897 L 85.663 89.500 91.852 88.335 C 118.296 83.355, 144.894 51.875, 140.868 30.322 C 138.564 17.991, 129.125 12.631, 117.165 16.862 M 165.455 18.455 C 162.467 21.442, 162.450 21.883, 165.121 27.008 C 167.166 30.932, 167.182 31.234, 165.574 35.446 C 163.844 39.975, 156.117 48.078, 151.539 50.164 C 148.604 51.502, 148.288 52.789, 150.671 53.704 C 153.269 54.701, 163.973 48.609, 169.931 42.743 C 176.151 36.619, 178.947 31.198, 178.978 25.205 C 179.005 19.847, 175.671 16, 171 16 C 169.052 16, 167.002 16.907, 165.455 18.455 M 120.105 24.051 C 114.282 27.646, 110.696 32.344, 105.056 43.766 C 99.651 54.710, 88.756 82.089, 89.507 82.840 C 90.668 84.002, 100.605 79.788, 107.279 75.303 C 119.959 66.783, 130.604 50.861, 133.035 36.781 C 134.066 30.806, 133.990 29.644, 132.347 26.281 C 130.794 23.101, 129.944 22.457, 127 22.228 C 124.796 22.056, 122.243 22.731, 120.105 24.051 M 261.500 35.881 C 252 41.815, 237.866 65.200, 228.973 89.699 C 226.124 97.547, 224.077 101.365, 220.425 105.640 C 212.180 115.290, 202.104 120.991, 198.532 118.026 C 195.889 115.833, 196.674 109.923, 200.439 103.672 C 202.330 100.531, 204.138 97.140, 204.456 96.138 C 205.088 94.147, 201.635 89, 199.667 89 C 199.014 89, 196.162 92.038, 193.329 95.750 C 187.115 103.895, 176.829 114.752, 171.906 118.364 C 161.258 126.174, 160.219 115.886, 170.152 101.010 C 179.037 87.704, 194.136 77.160, 205.625 76.238 C 209.131 75.956, 212 75.348, 212 74.886 C 212 72.690, 206.431 70.545, 201.074 70.678 C 180.336 71.194, 152.814 95.987, 151.242 115.569 C 150.759 121.587, 150.881 122.035, 153.791 124.944 C 159.658 130.812, 167.677 128.151, 180.211 116.176 L 188 108.735 188 112.933 C 188 115.242, 188.463 117.997, 189.030 119.055 C 190.370 121.559, 195.158 124.003, 198.700 123.990 C 203.541 123.973, 211.601 119.399, 217.914 113.086 L 224 107 224 113.550 C 224 120.803, 225.520 124.691, 229.615 127.912 C 236.489 133.319, 247.002 128.321, 258.949 113.966 L 263.700 108.257 263.700 116.395 C 263.700 122.382, 264.230 125.718, 265.705 129.017 C 267.638 133.340, 271.898 138.263, 272.097 136.405 C 272.151 135.907, 272.289 129.875, 272.404 123 C 272.648 108.458, 274.091 103.067, 282.487 85.345 L 287.771 74.189 293.135 73.131 C 305.138 70.765, 305.935 70.727, 308.504 72.411 C 313.046 75.386, 311.484 84.773, 302.517 108.403 C 300.033 114.950, 298 121.104, 298 122.080 C 298 123.948, 302.426 128, 304.466 128 C 305.765 128, 305.994 127.593, 311.760 114.979 C 319.440 98.181, 331.232 83.531, 340.916 78.759 C 344.275 77.104, 347.037 76.546, 351.250 76.674 C 358.191 76.884, 358.707 75.507, 353.600 70.400 C 349.767 66.567, 345.048 65.889, 340.080 68.458 C 336.192 70.469, 328.976 78.709, 322.864 88.116 C 320.046 92.452, 317.622 96, 317.475 96 C 317.329 96, 318.063 93.260, 319.105 89.911 C 321.395 82.552, 321.506 77.879, 319.483 73.967 C 316.897 68.966, 312.830 67.544, 301.722 67.756 L 291.943 67.943 294.945 63.580 C 296.596 61.180, 300.014 57.397, 302.539 55.174 L 307.132 51.132 305.066 49.066 C 302.563 46.563, 297.872 46.383, 294.404 48.655 C 291.513 50.549, 284.451 59.490, 280.906 65.743 C 278.110 70.675, 274.849 71.770, 267.576 70.218 C 265.059 69.682, 263 69.601, 263 70.039 C 263 73.354, 267.688 77, 271.950 77 C 273.078 77, 273.999 77.338, 273.998 77.750 C 273.997 78.162, 271.987 83.593, 269.531 89.817 C 264.906 101.539, 259.316 109.868, 251.083 117.306 C 240.457 126.906, 234 126.157, 234 115.323 C 234 97.181, 253.463 56.698, 268.775 42.990 L 274.500 37.865 272.139 35.932 C 269.160 33.494, 265.351 33.476, 261.500 35.881 M 635.260 35.983 C 633.478 37.069, 629.792 40.993, 627.068 44.703 C 612.036 65.174, 600.052 92.836, 598.368 110.948 C 597.318 122.250, 602.368 130.043, 610.700 129.978 C 616.996 129.929, 626.271 123.216, 634.820 112.522 L 638 108.544 638.002 114.522 C 638.005 128.303, 647.121 134.832, 658.691 129.342 C 660.737 128.371, 665.409 124.749, 669.074 121.291 L 675.737 115.005 676.307 119.251 C 676.692 122.124, 677.723 124.225, 679.494 125.748 C 685.106 130.576, 693.351 127.507, 705.211 116.176 L 713 108.735 713 112.933 C 713 115.242, 713.463 117.997, 714.030 119.055 C 715.370 121.559, 720.158 124.003, 723.700 123.990 C 728.314 123.974, 736.303 119.594, 742.146 113.877 C 747.654 108.488, 754 100.444, 754 98.850 C 754 96.532, 750.941 98.823, 745.741 105.036 C 729.491 124.449, 714.180 122.779, 726 102.883 C 728.200 99.180, 730 95.727, 730 95.210 C 730 93.670, 725.954 89, 724.620 89 C 723.941 89, 721.191 91.989, 718.509 95.642 C 713.440 102.546, 702.928 113.726, 697.173 118.336 C 693.205 121.514, 689.397 121.827, 688.516 119.049 C 685.835 110.605, 702.854 88.093, 718 80.047 C 723.355 77.202, 725.600 76.586, 730.745 76.547 C 737.688 76.495, 738.772 75.207, 734.324 72.293 C 728.419 68.424, 715.006 71.280, 703.354 78.888 C 694.053 84.961, 688.715 90.274, 681.917 100.222 C 674.201 111.512, 668.336 117.934, 662.064 121.959 C 656.201 125.721, 650.654 126.091, 648.912 122.835 C 647.093 119.437, 648.412 109.359, 651.820 100.612 C 655.849 90.271, 665.535 74.291, 668.337 73.363 C 669.527 72.969, 673.650 72.389, 677.500 72.073 C 682.801 71.639, 684.500 71.136, 684.500 70 C 684.500 68.862, 682.853 68.379, 677.681 68 L 670.863 67.500 676.434 60.339 C 682.146 52.998, 682.603 50.928, 678.948 48.972 C 673.633 46.128, 668.922 49.471, 660.468 62.086 C 657.736 66.164, 655.050 69.862, 654.500 70.304 C 653.950 70.746, 650.462 70.856, 646.750 70.547 C 642.337 70.180, 640 70.350, 640 71.038 C 640 72.842, 644.809 77, 646.896 77 C 647.988 77, 649.128 77.399, 649.430 77.886 C 649.731 78.373, 648.244 82.536, 646.127 87.136 C 644.009 91.736, 642.044 96.175, 641.759 97 C 640.695 100.090, 631.784 110.973, 625.520 116.833 C 617.743 124.107, 612.825 125.737, 609.826 122.033 C 605.432 116.608, 610.018 98.095, 621.598 74.500 C 627.765 61.936, 638.634 46.212, 643.689 42.542 C 648.279 39.209, 648.920 37.419, 646.250 35.392 C 643.707 33.461, 638.979 33.716, 635.260 35.983 M 582.462 65.592 C 581.933 65.720, 580.333 66.080, 578.907 66.392 C 575.949 67.039, 571 71.586, 571 73.657 C 571 74.719, 571.955 74.553, 575.116 72.941 C 580.073 70.412, 583.674 71.012, 585.035 74.593 C 588.096 82.643, 583.297 98.116, 573.796 110.832 C 567.380 119.418, 557.728 124.328, 554.200 120.800 C 550.830 117.430, 554.066 104.765, 560.554 95.926 C 563.870 91.409, 566.504 89.029, 576.203 81.784 C 578.154 80.327, 578.275 79.919, 577.008 79.076 C 575.102 77.808, 571.988 78.523, 564.500 81.949 C 557.306 85.241, 549.389 92.160, 545.013 98.980 C 538.978 108.384, 540.001 120.591, 547.190 124.974 C 559.311 132.364, 579.630 118.514, 590.735 95.292 C 596.271 83.716, 596.255 71.342, 590.699 67.736 C 588.456 66.280, 584.196 65.171, 582.462 65.592 M 383 71.373 C 370.709 74.067, 355.351 85.044, 346.480 97.475 C 341.101 105.014, 339 110.555, 339 117.203 C 339 121.342, 339.479 122.633, 341.923 125.077 C 347.522 130.676, 355.536 127.913, 368.318 115.977 L 376 108.802 376 113.345 C 376 122.458, 383.809 126.390, 393.442 122.129 C 401.608 118.516, 418.153 100.820, 415.679 98.345 C 415.275 97.942, 413.524 99.386, 411.787 101.556 C 406.008 108.776, 398.848 115.180, 394.309 117.187 C 389.491 119.319, 385.087 118.989, 384.875 116.481 C 384.806 115.666, 384.670 114.438, 384.573 113.750 C 384.279 111.679, 386.183 106.774, 389.175 101.889 C 392.444 96.555, 392.759 92.997, 390.171 90.655 C 387.398 88.145, 386.495 88.557, 382.335 94.235 C 372.047 108.277, 358.178 121.275, 354 120.790 C 351.767 120.531, 351.508 120.057, 351.579 116.353 C 351.708 109.518, 356.491 101.519, 366.500 91.400 C 377.086 80.696, 383.934 76.872, 393.724 76.199 C 399.400 75.808, 399.861 75.609, 398.962 73.929 C 398.420 72.916, 396.294 71.620, 394.238 71.049 C 389.849 69.830, 390.068 69.824, 383 71.373 M 23.821 119.031 C 20.592 120.737, 18.865 123.154, 18.485 126.500 C 18.278 128.312, 20.895 132.746, 22.545 133.379 C 26.021 134.713, 35.572 133.923, 39.943 131.941 C 45.229 129.543, 53 123.386, 53 121.597 C 53 119.858, 40.622 116.989, 33.357 117.044 C 29.558 117.073, 26.207 117.771, 23.821 119.031" stroke="none" fill="#F7F1E4" fill-rule="evenodd"/>
</svg>